<?xml version="1.0" encoding="utf-8"?>
<!-- Generator: Adobe Illustrator 19.0.0, SVG Export Plug-In . SVG Version: 6.00 Build 0)  -->
<svg version="1.1" id="Calque_1" xmlns="http://www.w3.org/2000/svg" xmlns:xlink="http://www.w3.org/1999/xlink" x="0px" y="0px"
	 viewBox="0 0 350 350" style="enable-background:new 0 0 350 350;" xml:space="preserve">
<style type="text/css">
	.st0{fill:#FFFFFF;}
	.st1{fill:#E30D18;}
	.st2{fill:none;stroke:#000000;stroke-width:3.9434;stroke-linecap:round;stroke-miterlimit:10;}
</style>
<path id="XMLID_197_" class="st0" d="M188.4,182.3c-0.2-1.2-1.5-2.8,2-3.8c3.5-1.1,6.1-2.1,11.2-1.7c5,0.4,18.5,4.6,19.8,5.1
	s2.2,8.5-2.4,9c-4.6,0.5-15.4,2.2-18.2,0c-2.8-2.2-6-5.5-8-5.6C190.9,185.2,188.8,184.4,188.4,182.3z"/>
<path id="XMLID_196_" class="st0" d="M140.2,185.6c-3.7-0.6-5.3-2.2-11.1,0c-5.9,2.2-17.2,3.4-22.8,1.1c-5.6-2.3-4.5-5.5-1.8-6.3
	c2.8-0.9,14.4-5.2,18.3-5.2c3.9,0,16.7,4.6,18.4,6.7C142.9,184,141.7,185.8,140.2,185.6z"/>
<path id="XMLID_195_" class="st0" d="M93.4,299.4c3.4,4.3,33.7,37.5,52.6,39.7s30.4,2.2,42.2-3.4c11.8-5.6,42.4-27.5,48.1-33.7
	s21.9-28.4,24.7-48.6c1.6-11.8,5.5-10.6,8.3-11.2c2.8-0.6,15-7.6,15.6-12.3c0.6-4.8,9-26.8,7.3-38c-1.7-11.2,0.6-19.7-5.1-23.7
	c-5.6-4-17.7-0.8-20.5,1.5c-2.8,2.2-5.1-12.9-4.8-19.4c0.3-6.5,5.1-71,5.1-71l-36-31.2l-85.4,17.7L88.3,76.2l-39.7,36.6l9.4,67
	L53.3,206l4.7,24.5c0,0,12.4,14.1,15.1,24.2S70.9,270.8,93.4,299.4z"/>
<g id="XMLID_192_">
	<path id="XMLID_194_" class="st1" d="M162.5,249"/>
	<path id="XMLID_193_" class="st1" d="M163.8,266.5"/>
</g>
<path id="XMLID_191_" class="st2" d="M151.7,183.1c-1.8,6.9-3.3,13.9-3.5,20.1c-0.3,6.2-4,5.9-5.2,12.9c-1.3,6.9-7.4,3.8-7.2,14.8
	c0.1,11,5.8,12.6,6.9,11.9s4.5-4,6.6-2.7c2.1,1.3,7.8,5,11.7,2.8c4-2.1,4.9-3,6.6-2.4"/>
<path id="XMLID_190_" class="st2" d="M93.9,179.9c5.2-2.3,26.2-4.8,30.9-4.1c4.7,0.7,16.3,4.2,17.2,7.5"/>
<path id="XMLID_189_" d="M122.8,179.5c0,2.7-3,5.9-6.8,5.9c-3.7,0-6.8-2.2-6.8-4.9s2-3.2,5.8-3.2
	C118.7,177.3,122.8,170.1,122.8,179.5z"/>
<path id="XMLID_188_" d="M137.4,178.2c1.7,0.4,0.2-6.5-2-7.8c-2.2-1.3-20.9-6.3-28.1-8.2c-7.2-1.9-20.7-2.6-21.4,4.6
	c-0.7,7.1-0.9,11.1,3.5,11c4.4-0.1,1.3-7.8,11-7.4C109.9,170.8,131.8,176.9,137.4,178.2z"/>
<path id="XMLID_187_" class="st2" d="M228,180c-5.2-2.3-24.7-4.3-29.4-3.6c-4.7,0.7-16.3,4.2-17.2,7.5"/>
<path id="XMLID_186_" d="M201.7,180.6c0,2.7,3,5.2,6.7,5.2c3.7,0,6.7-3.2,6.7-5.8s-2.1-3.7-5.9-3.7
	C205.5,176.2,201.7,174.4,201.7,180.6z"/>
<path id="XMLID_185_" d="M182.1,181.5c-1.7,0.4-0.3-7.7,1.9-9.1s23.4-6.8,30.5-9s26,1.3,26.9,8.4c0.9,7.1-5.9,10.6-8.5,6.6
	c-2.4-3.7-1.6-7.8-11.2-7C212,172.2,187.6,180.1,182.1,181.5z"/>
<path id="XMLID_184_" class="st2" d="M135.7,306.4c3.5-9.9,16.5-13.3,17.3-14.1c0.8-0.8,6.7-5,10.8-2.8s12.4,6.1,15.4,9.7
	c3,3.6,6.3,7.5,6.3,10.8"/>
<path id="XMLID_183_" d="M115.4,267.4c-4.1,3.1-7.9,12.7-6.2,14.9c1.7,2.2,8.7,1.1,10.8,0s12.6-7.9,18.1-8.8
	c5.5-0.9,9.9-5.1,15.2-5.1s11.9,1.4,14.4,1.1c2.5-0.3,9.7,2.7,14.7,3c7.2,0.3,10.5,2.5,13,3s5,3.8,10.5,3.8c5.5,0,8.8-5.8,3.6-9.4
	s-7.4-12-13.8-13.6c-6.4-1.7-14.9-5.3-23-5.8c-8-0.6-10.2-4.1-19.4-3.6c-9.1,0.6-16.3,4.4-20.5,7.3
	C128.7,257.1,120.5,263.6,115.4,267.4z"/>
<path id="XMLID_182_" class="st2" d="M111.3,305c2,3.8,21.6,29.4,44,28.4c22.4-1,45.7-7,55.8-23.5"/>
<path id="XMLID_181_" d="M73.7,257.4c0.5,3.9-8-6.6-11.8-8.3c-3.8-1.7-22.5-9.3-22.9-17.6c-0.4-8.3-0.5-13-2.7-16.8
	c-2.2-3.8-1.3-9.4-1.3-13.7s-2.4-13.4-4.9-16.1s-5.1-7.1-5.1-11.1s-3.5-16.4,0-20.5s-1-5.4-1.6-12.1c-0.6-6.7,2.9-13.5,3.2-19.1
	c0.3-5.7-6.7-23.2,4.9-28s4.6-12.1,5.4-15.9c0.8-3.8,1.7-12.4,11.6-18.1S66,51.5,67.1,47.2c1.1-4.3,2.6-13.3,15.6-17.7
	s23-1,26.5-5.3c3.5-4.3,18.5-15.9,32.8-13.9s24.4,2.4,26.8,8c2.3,5.7,7.5-10,26.8-7.6c6,0.7,3.6,3.6,11.8,5.6s20.8-4.3,22.8-0.3
	s3.3,8,8.6,8c5.3,0,11,0,13.3,3.3c2.3,3.3,7.3,15.7,16.3,17.1c9,1.5,23,18.4,26.3,24.1c3.3,5.7,1.7,12.3,7.3,13.7
	c5.7,1.3,2.7,12.3,7.7,14c5,1.7,11.7,7,12.3,12.3s11,16.7,0,27.4c-11,10.7-18,9.7-14.3,17.7c3.7,8,3,16,0,20.3s-3.8,21.8-5.9,23.5
	s-1.9,21.5-6.7,28.4c-4.7,6.9-12.5,16.4-18.8,19.4c-6.3,3-6.4,7-11,7.5c-4.6,0.6-4.7,3.8-4-2.6c0.8-6.4,2-11,4-11
	c1.9,0,10.1-1.3,12.5-5c2.4-3.7,7.8-21.8,7.3-25.7s-3.5,2.1-5.8,1.1c-1-0.4,0.6-7.1,4.5-10.4c3.9-3.2,3.5-15.3,0.9-14.6
	s-10.4,8.7-10.6,12.7c-0.2,4-6.6,25.1-8,22.2c-1.2-2.3,0.7-13.2,0.5-23.4c-0.2-10.1,0.9-17.9-2.4-22.6c-3.2-4.7-10.5-16.9-10-24.1
	c0.5-7.3-6.3-24,0.2-37.8s-4.1-34.4-9.2-36.3c-5.1-1.9-9.2-9-26.4-2.2s-42.1,8.7-48.5,17s-20.5-2.9-25.1-5.1
	c-4.6-2.2-34.6-9.7-41.9-0.2s-10.2,21.6-13.8,21.8c-3.6,0.2-12.4-6.8-12.6-0.2c-0.2,6.5,5.8,18.1,3.4,29.5s-8,11.9-8,25.1
	c0,13.2-3.1,15.8-4.8,23.7s5.3,48.9,4.1,48.9c-1.2,0-6.5-3.6-6.5-7.8c0-4.1-1-11.9-1-14.8c0-2.9-3.9-20.8-5.6-15.7
	c-1.7,5.1-1.9,23.7,0.2,28.8c2.2,5.1,3.9,8.5,6.8,9.3c2.9,0.8,2.7,4.7,4.4,5.9C71.7,240.6,73.2,253,73.7,257.4z"/>
<path id="XMLID_180_" d="M244.6,240.9c-1.2-0.1,1.7-4.7,2.2-4.7C248.9,236.2,247,241.1,244.6,240.9z"/>
<path id="XMLID_179_" class="st2" d="M138.1,187.8c-1.7-1.3-3.6-3.6-8.3-1.3s-7,3.2-15.3,3.2c-8.7,0-8.6-0.7-10.6-2.2"/>
<path id="XMLID_178_" class="st2" d="M133.3,193.8c-2.5,1.6-11.9,5.9-18.7,6.5"/>
<path id="XMLID_177_" class="st2" d="M190.5,191.5c2.7,1.3,8.2,6.8,15.6,6.9"/>
<path id="XMLID_176_" class="st2" d="M187.1,186c1.9-0.1,5-1.9,7.9,0c2.9,1.9,4.6,5.7,11.1,5.5c6.5-0.2,13.3,0.3,15.7-1.9"/>
<path id="XMLID_175_" class="st2" d="M174,204.3c-0.2,4.6-0.9,7.5,1.3,13.2s2,12.5,0,14.3"/>
<path id="XMLID_174_" class="st2" d="M133.3,280c1.8-1,18.7-8.5,20.1-8.7s1.6,0.3,5.1,0.5c3.6,0.2,9.1-2.3,31.9,8.1"/>
</svg>
