<?xml version="1.0" encoding="utf-8"?>
<!-- Generator: Adobe Illustrator 19.0.0, SVG Export Plug-In . SVG Version: 6.00 Build 0)  -->
<svg version="1.1" id="Calque_1" xmlns="http://www.w3.org/2000/svg" xmlns:xlink="http://www.w3.org/1999/xlink" x="0px" y="0px"
	 viewBox="0 0 350 350" style="enable-background:new 0 0 350 350;" xml:space="preserve">
<style type="text/css">
	.st0{fill:#FFFFFF;}
	.st1{fill:#E30D18;}
	.st2{fill:none;stroke:#000000;stroke-width:3.9434;stroke-linecap:round;stroke-miterlimit:10;}
</style>
<g id="XMLID_317_">
	<path id="XMLID_318_" class="st0" d="M188.1,182.5c-0.2-1.2-1.5-2.8,2-3.8c3.5-1.1,6.1-2.1,11.2-1.7c5,0.4,18.5,4.6,19.8,5.1
		c1.3,0.4,2.2,8.5-2.4,9c-4.6,0.5-15.4,2.2-18.2,0c-2.8-2.2-6-5.5-8-5.6C190.6,185.4,188.5,184.6,188.1,182.5z"/>
	<path id="XMLID_301_" class="st0" d="M139.9,185.9c-3.7-0.6-5.3-2.2-11.1,0c-5.9,2.2-17.2,3.4-22.8,1.1c-5.6-2.3-4.5-5.5-1.8-6.3
		c2.8-0.9,14.4-5.2,18.3-5.2s16.7,4.6,18.4,6.7C142.6,184.2,141.4,186.1,139.9,185.9z"/>
	<path id="XMLID_297_" class="st0" d="M93.1,299.7c3.4,4.3,33.7,37.5,52.6,39.7c18.8,2.2,30.4,2.2,42.2-3.4
		c11.8-5.6,42.4-27.5,48.1-33.7c5.6-6.2,21.9-28.4,24.7-48.6c1.6-11.8,5.5-10.6,8.3-11.2c2.8-0.6,15-7.6,15.6-12.3s9-26.8,7.3-38
		c-1.7-11.2,0.6-19.7-5.1-23.7s-17.7-0.8-20.5,1.5c-2.8,2.2-5.1-12.9-4.8-19.4c0.3-6.5,5.1-71,5.1-71l-36-31.2l-85.4,17.7L88,76.5
		l-39.7,36.6l9.4,67L53,206.3l4.7,24.5c0,0,12.4,14.1,15.1,24.2C75.5,265.1,70.6,271.1,93.1,299.7z"/>
	<g id="XMLID_185_">
		<path id="XMLID_296_" class="st1" d="M162.2,249.3"/>
		<path id="XMLID_294_" class="st1" d="M163.5,266.7"/>
	</g>
	<path id="XMLID_304_" class="st2" d="M151.4,183.4c-1.8,6.9-3.3,13.9-3.5,20.1c-0.3,6.2-4,5.9-5.2,12.9s-7.4,3.8-7.2,14.8
		c0.1,11,5.8,12.6,6.9,11.9c1.1-0.7,4.5-4,6.6-2.7c2.1,1.3,7.8,5,11.7,2.8s4.9-3,6.6-2.4"/>
	<path id="XMLID_310_" class="st2" d="M93.6,184.3c5.2-2.3,26.2-9,30.9-8.3c4.7,0.7,16.3,4.2,17.2,7.5"/>
	<path id="XMLID_309_" d="M122.5,182.7c0,2.7-3,4.9-6.8,4.9c-3.7,0-6.8-2.2-6.8-4.9s2-5.2,5.8-5.2
		C118.4,177.5,122.5,173.4,122.5,182.7z"/>
	<path id="XMLID_308_" d="M137.2,173.5c1.7,0.1-1-6.4-3.5-7.3s-21.7-2.3-29.2-2.8c-7.5-0.5-20.8,1.4-20.2,8.5
		c0.7,7.1,1.2,11.1,5.6,10.1s-0.2-7.9,9.4-9.3C108.9,171.5,131.5,173.4,137.2,173.5z"/>
	<path id="XMLID_312_" class="st2" d="M229.2,185c-5.2-2.3-26.2-9-30.9-8.3c-4.7,0.7-16.3,4.2-17.2,7.5"/>
	<path id="XMLID_311_" d="M201.4,183.2c0,2.7,3,4.9,6.8,4.9c3.7,0,6.8-2.2,6.8-4.9s-2-5.2-5.8-5.2
		C205.4,178,201.4,173.8,201.4,183.2z"/>
	<path id="XMLID_300_" d="M182.9,171.8c-1.7,0.1,1.4-7.6,3.9-8.4c2.4-0.9,24.3-1.5,31.8-2.1c7.5-0.5,25.1,7,24.4,14.1
		c-0.7,7.1-8.1,9-9.8,4.6c-1.6-4.2,0.2-7.9-9.4-9.3C214.1,169.3,188.6,171.7,182.9,171.8z"/>
	<path id="XMLID_293_" class="st2" d="M135.4,306.6c3.5-9.9,16.5-13.3,17.3-14.1c0.8-0.8,6.7-5,10.8-2.8s12.4,6.1,15.4,9.7
		c3,3.6,6.3,7.5,6.3,10.8"/>
	<path id="XMLID_295_" d="M111.1,265.7c-4.1,3.1-7.9,12.7-6.2,14.9c1.7,2.2,8.7,1.1,10.8,0s16.6-5.9,22.1-6.8
		c5.5-0.9,9.9-5.1,15.2-5.1s11.9,1.4,14.4,1.1c2.5-0.3,9.7,2.7,14.7,3c7.2,0.3,15.5,0.5,18,1c2.5,0.5,5,3.8,10.5,3.8
		s8.8-5.8,3.6-9.4c-5.2-3.6-12.4-10-18.8-11.6c-6.4-1.7-14.9-5.3-23-5.8c-8-0.6-10.2-4.1-19.4-3.6s-16.3,4.4-20.5,7.3
		S116.2,261.8,111.1,265.7z"/>
	<path id="XMLID_292_" class="st2" d="M111,305.3c2,3.8,21.6,29.4,44,28.4c22.4-1,45.7-7,55.8-23.5"/>
	<path id="XMLID_299_" d="M73.4,257.6c0.5,3.9-8-6.6-11.8-8.3c-3.8-1.7-22.5-9.3-22.9-17.6s-0.5-13-2.7-16.8s-1.3-9.4-1.3-13.7
		c0-4.3-2.4-13.4-4.9-16.1c-2.4-2.7-5.1-7.1-5.1-11.1c0-4-3.5-16.4,0-20.5c3.5-4-1-5.4-1.6-12.1c-0.6-6.7,2.9-13.5,3.2-19.1
		c0.3-5.7-6.7-23.2,4.9-28s4.6-12.1,5.4-15.9c0.8-3.8,1.7-12.4,11.6-18.1s17.5-8.4,18.5-12.7c1.1-4.3,2.6-13.3,15.6-17.7
		s23-1,26.5-5.3c3.5-4.3,18.5-15.9,32.8-13.9s24.4,2.4,26.8,8c2.3,5.7,7.5-10,26.8-7.6c6,0.7,3.6,3.6,11.8,5.6s20.8-4.3,22.8-0.3
		s3.3,8,8.6,8c5.3,0,11,0,13.3,3.3c2.3,3.3,7.3,15.7,16.3,17.1c9,1.5,23,18.4,26.3,24.1c3.3,5.7,1.7,12.3,7.3,13.7
		c5.7,1.3,2.7,12.3,7.7,14c5,1.7,11.7,7,12.3,12.3s11,16.7,0,27.4c-11,10.7-18,9.7-14.3,17.7s3,16,0,20.3s-3.8,21.8-5.9,23.5
		c-2.2,1.7-1.9,21.5-6.7,28.4c-4.7,6.9-12.5,16.4-18.8,19.4c-6.3,3-6.4,7-11,7.5c-4.6,0.6-4.7,3.8-4-2.6c0.8-6.4,2-11,4-11
		c1.9,0,10.1-1.3,12.5-5c2.4-3.7,7.8-21.8,7.3-25.7c-0.4-3.9-3.5,2.1-5.8,1.1c-1-0.4,0.6-7.1,4.5-10.4s3.5-15.3,0.9-14.6
		c-2.6,0.7-10.4,8.7-10.6,12.7c-0.2,4-6.6,25.1-8,22.2c-1.2-2.3,0.7-13.2,0.5-23.4c-0.2-10.1,0.9-17.9-2.4-22.6
		c-3.2-4.7-10.5-16.9-10-24.1c0.5-7.3-6.3-24,0.2-37.8s-4.1-34.4-9.2-36.3s-9.2-9-26.4-2.2s-42.1,8.7-48.5,17s-20.5-2.9-25.1-5.1
		c-4.6-2.2-34.6-9.7-41.9-0.2S93,106.7,89.3,106.9c-3.6,0.2-12.4-6.8-12.6-0.2c-0.2,6.5,5.8,18.1,3.4,29.5s-8,11.9-8,25.1
		S69,177.1,67.3,185c-1.7,7.9,5.3,48.9,4.1,48.9c-1.2,0-6.5-3.6-6.5-7.8s-1-11.9-1-14.8c0-2.9-3.9-20.8-5.6-15.7
		c-1.7,5.1-1.9,23.7,0.2,28.8c2.2,5.1,3.9,8.5,6.8,9.3c2.9,0.8,2.7,4.7,4.4,5.9S72.9,253.3,73.4,257.6z"/>
	<path id="XMLID_298_" d="M244.3,241.2c-1.2-0.1,1.7-4.7,2.2-4.7C248.6,236.5,246.7,241.3,244.3,241.2z"/>
	<path id="XMLID_303_" class="st2" d="M137.8,188c-1.7-1.3-3.6-3.6-8.3-1.3s-7,3.2-15.3,3.2c-8.7,0-8.6-0.7-10.6-2.2"/>
	<path id="XMLID_313_" class="st2" d="M133,194.1c-2.5,1.6-11.9,5.9-18.7,6.5"/>
	<path id="XMLID_314_" class="st2" d="M190.2,191.7c2.7,1.3,8.2,6.8,15.6,6.9"/>
	<path id="XMLID_315_" class="st2" d="M186.8,186.2c1.9-0.1,5-1.9,7.9,0c2.9,1.9,4.6,5.7,11.1,5.5c6.5-0.2,13.3,0.3,15.7-1.9"/>
	<path id="XMLID_302_" class="st2" d="M173.7,204.6c-0.2,4.6-0.9,7.5,1.3,13.2c2.2,5.7,2,12.5,0,14.3"/>
	<path id="XMLID_316_" class="st2" d="M146.2,274.8c2.7,0.4,7.6,0.2,10.2,0c2.7-0.2,5,1.8,7.1,1.8s6-1.7,8.6-1.9s5,0.2,8-2.2"/>
</g>
</svg>
